<mxfile host="app.diagrams.net" modified="2023-05-19T04:00:18.405Z" agent="Mozilla/5.0 (Macintosh; Intel Mac OS X 10.15; rv:109.0) Gecko/20100101 Firefox/113.0" etag="cqyXrQnt30_F7MMAXEGW" version="21.2.9" type="device">
  <diagram name="PÃ¡gina-1" id="iDtWInZpzVj89weRtn69">
    <mxGraphModel dx="2565" dy="1503" grid="1" gridSize="10" guides="1" tooltips="1" connect="1" arrows="1" fold="1" page="1" pageScale="1" pageWidth="827" pageHeight="1169" math="0" shadow="0">
      <root>
        <mxCell id="0" />
        <mxCell id="1" parent="0" />
        <mxCell id="JN2r9l-fqwPcNn_lezp6-1" value="LISTINGS" style="shape=table;startSize=30;container=1;collapsible=0;childLayout=tableLayout;strokeColor=default;fontSize=16;" vertex="1" parent="1">
          <mxGeometry x="470" y="120" width="630" height="150" as="geometry" />
        </mxCell>
        <mxCell id="JN2r9l-fqwPcNn_lezp6-2" value="" style="shape=tableRow;horizontal=0;startSize=0;swimlaneHead=0;swimlaneBody=0;strokeColor=inherit;top=0;left=0;bottom=0;right=0;collapsible=0;dropTarget=0;fillColor=none;points=[[0,0.5],[1,0.5]];portConstraint=eastwest;fontSize=16;" vertex="1" parent="JN2r9l-fqwPcNn_lezp6-1">
          <mxGeometry y="30" width="630" height="40" as="geometry" />
        </mxCell>
        <mxCell id="JN2r9l-fqwPcNn_lezp6-3" value="ID" style="shape=partialRectangle;html=1;whiteSpace=wrap;connectable=0;strokeColor=inherit;overflow=hidden;fillColor=none;top=0;left=0;bottom=0;right=0;pointerEvents=1;fontSize=16;" vertex="1" parent="JN2r9l-fqwPcNn_lezp6-2">
          <mxGeometry width="158" height="40" as="geometry">
            <mxRectangle width="158" height="40" as="alternateBounds" />
          </mxGeometry>
        </mxCell>
        <mxCell id="JN2r9l-fqwPcNn_lezp6-4" value="THUMBNAIL_URL" style="shape=partialRectangle;html=1;whiteSpace=wrap;connectable=0;strokeColor=inherit;overflow=hidden;fillColor=none;top=0;left=0;bottom=0;right=0;pointerEvents=1;fontSize=16;" vertex="1" parent="JN2r9l-fqwPcNn_lezp6-2">
          <mxGeometry x="158" width="157" height="40" as="geometry">
            <mxRectangle width="157" height="40" as="alternateBounds" />
          </mxGeometry>
        </mxCell>
        <mxCell id="JN2r9l-fqwPcNn_lezp6-5" value="TITLE" style="shape=partialRectangle;html=1;whiteSpace=wrap;connectable=0;strokeColor=inherit;overflow=hidden;fillColor=none;top=0;left=0;bottom=0;right=0;pointerEvents=1;fontSize=16;" vertex="1" parent="JN2r9l-fqwPcNn_lezp6-2">
          <mxGeometry x="315" width="158" height="40" as="geometry">
            <mxRectangle width="158" height="40" as="alternateBounds" />
          </mxGeometry>
        </mxCell>
        <mxCell id="JN2r9l-fqwPcNn_lezp6-22" value="DESCRIPTION" style="shape=partialRectangle;html=1;whiteSpace=wrap;connectable=0;strokeColor=inherit;overflow=hidden;fillColor=none;top=0;left=0;bottom=0;right=0;pointerEvents=1;fontSize=16;" vertex="1" parent="JN2r9l-fqwPcNn_lezp6-2">
          <mxGeometry x="473" width="157" height="40" as="geometry">
            <mxRectangle width="157" height="40" as="alternateBounds" />
          </mxGeometry>
        </mxCell>
        <mxCell id="JN2r9l-fqwPcNn_lezp6-6" value="" style="shape=tableRow;horizontal=0;startSize=0;swimlaneHead=0;swimlaneBody=0;strokeColor=inherit;top=0;left=0;bottom=0;right=0;collapsible=0;dropTarget=0;fillColor=none;points=[[0,0.5],[1,0.5]];portConstraint=eastwest;fontSize=16;" vertex="1" parent="JN2r9l-fqwPcNn_lezp6-1">
          <mxGeometry y="70" width="630" height="40" as="geometry" />
        </mxCell>
        <mxCell id="JN2r9l-fqwPcNn_lezp6-7" value="111111" style="shape=partialRectangle;html=1;whiteSpace=wrap;connectable=0;strokeColor=inherit;overflow=hidden;fillColor=none;top=0;left=0;bottom=0;right=0;pointerEvents=1;fontSize=16;" vertex="1" parent="JN2r9l-fqwPcNn_lezp6-6">
          <mxGeometry width="158" height="40" as="geometry">
            <mxRectangle width="158" height="40" as="alternateBounds" />
          </mxGeometry>
        </mxCell>
        <mxCell id="JN2r9l-fqwPcNn_lezp6-8" value="" style="shape=partialRectangle;html=1;whiteSpace=wrap;connectable=0;strokeColor=inherit;overflow=hidden;fillColor=none;top=0;left=0;bottom=0;right=0;pointerEvents=1;fontSize=16;" vertex="1" parent="JN2r9l-fqwPcNn_lezp6-6">
          <mxGeometry x="158" width="157" height="40" as="geometry">
            <mxRectangle width="157" height="40" as="alternateBounds" />
          </mxGeometry>
        </mxCell>
        <mxCell id="JN2r9l-fqwPcNn_lezp6-9" value="" style="shape=partialRectangle;html=1;whiteSpace=wrap;connectable=0;strokeColor=inherit;overflow=hidden;fillColor=none;top=0;left=0;bottom=0;right=0;pointerEvents=1;fontSize=16;" vertex="1" parent="JN2r9l-fqwPcNn_lezp6-6">
          <mxGeometry x="315" width="158" height="40" as="geometry">
            <mxRectangle width="158" height="40" as="alternateBounds" />
          </mxGeometry>
        </mxCell>
        <mxCell id="JN2r9l-fqwPcNn_lezp6-23" style="shape=partialRectangle;html=1;whiteSpace=wrap;connectable=0;strokeColor=inherit;overflow=hidden;fillColor=none;top=0;left=0;bottom=0;right=0;pointerEvents=1;fontSize=16;" vertex="1" parent="JN2r9l-fqwPcNn_lezp6-6">
          <mxGeometry x="473" width="157" height="40" as="geometry">
            <mxRectangle width="157" height="40" as="alternateBounds" />
          </mxGeometry>
        </mxCell>
        <mxCell id="JN2r9l-fqwPcNn_lezp6-10" value="" style="shape=tableRow;horizontal=0;startSize=0;swimlaneHead=0;swimlaneBody=0;strokeColor=inherit;top=0;left=0;bottom=0;right=0;collapsible=0;dropTarget=0;fillColor=none;points=[[0,0.5],[1,0.5]];portConstraint=eastwest;fontSize=16;" vertex="1" parent="JN2r9l-fqwPcNn_lezp6-1">
          <mxGeometry y="110" width="630" height="40" as="geometry" />
        </mxCell>
        <mxCell id="JN2r9l-fqwPcNn_lezp6-11" value="" style="shape=partialRectangle;html=1;whiteSpace=wrap;connectable=0;strokeColor=inherit;overflow=hidden;fillColor=none;top=0;left=0;bottom=0;right=0;pointerEvents=1;fontSize=16;" vertex="1" parent="JN2r9l-fqwPcNn_lezp6-10">
          <mxGeometry width="158" height="40" as="geometry">
            <mxRectangle width="158" height="40" as="alternateBounds" />
          </mxGeometry>
        </mxCell>
        <mxCell id="JN2r9l-fqwPcNn_lezp6-12" value="" style="shape=partialRectangle;html=1;whiteSpace=wrap;connectable=0;strokeColor=inherit;overflow=hidden;fillColor=none;top=0;left=0;bottom=0;right=0;pointerEvents=1;fontSize=16;" vertex="1" parent="JN2r9l-fqwPcNn_lezp6-10">
          <mxGeometry x="158" width="157" height="40" as="geometry">
            <mxRectangle width="157" height="40" as="alternateBounds" />
          </mxGeometry>
        </mxCell>
        <mxCell id="JN2r9l-fqwPcNn_lezp6-13" value="" style="shape=partialRectangle;html=1;whiteSpace=wrap;connectable=0;strokeColor=inherit;overflow=hidden;fillColor=none;top=0;left=0;bottom=0;right=0;pointerEvents=1;fontSize=16;" vertex="1" parent="JN2r9l-fqwPcNn_lezp6-10">
          <mxGeometry x="315" width="158" height="40" as="geometry">
            <mxRectangle width="158" height="40" as="alternateBounds" />
          </mxGeometry>
        </mxCell>
        <mxCell id="JN2r9l-fqwPcNn_lezp6-24" style="shape=partialRectangle;html=1;whiteSpace=wrap;connectable=0;strokeColor=inherit;overflow=hidden;fillColor=none;top=0;left=0;bottom=0;right=0;pointerEvents=1;fontSize=16;" vertex="1" parent="JN2r9l-fqwPcNn_lezp6-10">
          <mxGeometry x="473" width="157" height="40" as="geometry">
            <mxRectangle width="157" height="40" as="alternateBounds" />
          </mxGeometry>
        </mxCell>
        <mxCell id="JN2r9l-fqwPcNn_lezp6-25" value="TABLES" style="text;html=1;strokeColor=none;fillColor=none;align=center;verticalAlign=middle;whiteSpace=wrap;rounded=0;" vertex="1" parent="1">
          <mxGeometry x="794" y="50" width="60" height="30" as="geometry" />
        </mxCell>
        <mxCell id="JN2r9l-fqwPcNn_lezp6-26" value="RESERVATIONS" style="shape=table;startSize=30;container=1;collapsible=0;childLayout=tableLayout;strokeColor=default;fontSize=16;" vertex="1" parent="1">
          <mxGeometry x="340" y="310" width="920" height="150" as="geometry" />
        </mxCell>
        <mxCell id="JN2r9l-fqwPcNn_lezp6-27" value="" style="shape=tableRow;horizontal=0;startSize=0;swimlaneHead=0;swimlaneBody=0;strokeColor=inherit;top=0;left=0;bottom=0;right=0;collapsible=0;dropTarget=0;fillColor=none;points=[[0,0.5],[1,0.5]];portConstraint=eastwest;fontSize=16;" vertex="1" parent="JN2r9l-fqwPcNn_lezp6-26">
          <mxGeometry y="30" width="920" height="40" as="geometry" />
        </mxCell>
        <mxCell id="JN2r9l-fqwPcNn_lezp6-42" value="ID" style="shape=partialRectangle;html=1;whiteSpace=wrap;connectable=0;strokeColor=inherit;overflow=hidden;fillColor=none;top=0;left=0;bottom=0;right=0;pointerEvents=1;fontSize=16;" vertex="1" parent="JN2r9l-fqwPcNn_lezp6-27">
          <mxGeometry width="184" height="40" as="geometry">
            <mxRectangle width="184" height="40" as="alternateBounds" />
          </mxGeometry>
        </mxCell>
        <mxCell id="JN2r9l-fqwPcNn_lezp6-28" value="LISTING_ID" style="shape=partialRectangle;html=1;whiteSpace=wrap;connectable=0;strokeColor=inherit;overflow=hidden;fillColor=none;top=0;left=0;bottom=0;right=0;pointerEvents=1;fontSize=16;" vertex="1" parent="JN2r9l-fqwPcNn_lezp6-27">
          <mxGeometry x="184" width="185" height="40" as="geometry">
            <mxRectangle width="185" height="40" as="alternateBounds" />
          </mxGeometry>
        </mxCell>
        <mxCell id="JN2r9l-fqwPcNn_lezp6-29" value="INIT_RANGE" style="shape=partialRectangle;html=1;whiteSpace=wrap;connectable=0;strokeColor=inherit;overflow=hidden;fillColor=none;top=0;left=0;bottom=0;right=0;pointerEvents=1;fontSize=16;" vertex="1" parent="JN2r9l-fqwPcNn_lezp6-27">
          <mxGeometry x="369" width="183" height="40" as="geometry">
            <mxRectangle width="183" height="40" as="alternateBounds" />
          </mxGeometry>
        </mxCell>
        <mxCell id="JN2r9l-fqwPcNn_lezp6-30" value="END_RANGE" style="shape=partialRectangle;html=1;whiteSpace=wrap;connectable=0;strokeColor=inherit;overflow=hidden;fillColor=none;top=0;left=0;bottom=0;right=0;pointerEvents=1;fontSize=16;" vertex="1" parent="JN2r9l-fqwPcNn_lezp6-27">
          <mxGeometry x="552" width="185" height="40" as="geometry">
            <mxRectangle width="185" height="40" as="alternateBounds" />
          </mxGeometry>
        </mxCell>
        <mxCell id="JN2r9l-fqwPcNn_lezp6-31" value="EXPIRATION" style="shape=partialRectangle;html=1;whiteSpace=wrap;connectable=0;strokeColor=inherit;overflow=hidden;fillColor=none;top=0;left=0;bottom=0;right=0;pointerEvents=1;fontSize=16;" vertex="1" parent="JN2r9l-fqwPcNn_lezp6-27">
          <mxGeometry x="737" width="183" height="40" as="geometry">
            <mxRectangle width="183" height="40" as="alternateBounds" />
          </mxGeometry>
        </mxCell>
        <mxCell id="JN2r9l-fqwPcNn_lezp6-32" value="" style="shape=tableRow;horizontal=0;startSize=0;swimlaneHead=0;swimlaneBody=0;strokeColor=inherit;top=0;left=0;bottom=0;right=0;collapsible=0;dropTarget=0;fillColor=none;points=[[0,0.5],[1,0.5]];portConstraint=eastwest;fontSize=16;" vertex="1" parent="JN2r9l-fqwPcNn_lezp6-26">
          <mxGeometry y="70" width="920" height="40" as="geometry" />
        </mxCell>
        <mxCell id="JN2r9l-fqwPcNn_lezp6-43" value="11" style="shape=partialRectangle;html=1;whiteSpace=wrap;connectable=0;strokeColor=inherit;overflow=hidden;fillColor=none;top=0;left=0;bottom=0;right=0;pointerEvents=1;fontSize=16;" vertex="1" parent="JN2r9l-fqwPcNn_lezp6-32">
          <mxGeometry width="184" height="40" as="geometry">
            <mxRectangle width="184" height="40" as="alternateBounds" />
          </mxGeometry>
        </mxCell>
        <mxCell id="JN2r9l-fqwPcNn_lezp6-33" value="111111" style="shape=partialRectangle;html=1;whiteSpace=wrap;connectable=0;strokeColor=inherit;overflow=hidden;fillColor=none;top=0;left=0;bottom=0;right=0;pointerEvents=1;fontSize=16;" vertex="1" parent="JN2r9l-fqwPcNn_lezp6-32">
          <mxGeometry x="184" width="185" height="40" as="geometry">
            <mxRectangle width="185" height="40" as="alternateBounds" />
          </mxGeometry>
        </mxCell>
        <mxCell id="JN2r9l-fqwPcNn_lezp6-34" value="01-01-2023T00:00:00" style="shape=partialRectangle;html=1;whiteSpace=wrap;connectable=0;strokeColor=inherit;overflow=hidden;fillColor=none;top=0;left=0;bottom=0;right=0;pointerEvents=1;fontSize=16;" vertex="1" parent="JN2r9l-fqwPcNn_lezp6-32">
          <mxGeometry x="369" width="183" height="40" as="geometry">
            <mxRectangle width="183" height="40" as="alternateBounds" />
          </mxGeometry>
        </mxCell>
        <mxCell id="JN2r9l-fqwPcNn_lezp6-35" value="15-01-2023T11:59:00" style="shape=partialRectangle;html=1;whiteSpace=wrap;connectable=0;strokeColor=inherit;overflow=hidden;fillColor=none;top=0;left=0;bottom=0;right=0;pointerEvents=1;fontSize=16;" vertex="1" parent="JN2r9l-fqwPcNn_lezp6-32">
          <mxGeometry x="552" width="185" height="40" as="geometry">
            <mxRectangle width="185" height="40" as="alternateBounds" />
          </mxGeometry>
        </mxCell>
        <mxCell id="JN2r9l-fqwPcNn_lezp6-36" value="30-12-2022T03:15:00" style="shape=partialRectangle;html=1;whiteSpace=wrap;connectable=0;strokeColor=inherit;overflow=hidden;fillColor=none;top=0;left=0;bottom=0;right=0;pointerEvents=1;fontSize=16;" vertex="1" parent="JN2r9l-fqwPcNn_lezp6-32">
          <mxGeometry x="737" width="183" height="40" as="geometry">
            <mxRectangle width="183" height="40" as="alternateBounds" />
          </mxGeometry>
        </mxCell>
        <mxCell id="JN2r9l-fqwPcNn_lezp6-37" value="" style="shape=tableRow;horizontal=0;startSize=0;swimlaneHead=0;swimlaneBody=0;strokeColor=inherit;top=0;left=0;bottom=0;right=0;collapsible=0;dropTarget=0;fillColor=none;points=[[0,0.5],[1,0.5]];portConstraint=eastwest;fontSize=16;" vertex="1" parent="JN2r9l-fqwPcNn_lezp6-26">
          <mxGeometry y="110" width="920" height="40" as="geometry" />
        </mxCell>
        <mxCell id="JN2r9l-fqwPcNn_lezp6-44" style="shape=partialRectangle;html=1;whiteSpace=wrap;connectable=0;strokeColor=inherit;overflow=hidden;fillColor=none;top=0;left=0;bottom=0;right=0;pointerEvents=1;fontSize=16;" vertex="1" parent="JN2r9l-fqwPcNn_lezp6-37">
          <mxGeometry width="184" height="40" as="geometry">
            <mxRectangle width="184" height="40" as="alternateBounds" />
          </mxGeometry>
        </mxCell>
        <mxCell id="JN2r9l-fqwPcNn_lezp6-38" value="" style="shape=partialRectangle;html=1;whiteSpace=wrap;connectable=0;strokeColor=inherit;overflow=hidden;fillColor=none;top=0;left=0;bottom=0;right=0;pointerEvents=1;fontSize=16;" vertex="1" parent="JN2r9l-fqwPcNn_lezp6-37">
          <mxGeometry x="184" width="185" height="40" as="geometry">
            <mxRectangle width="185" height="40" as="alternateBounds" />
          </mxGeometry>
        </mxCell>
        <mxCell id="JN2r9l-fqwPcNn_lezp6-39" value="" style="shape=partialRectangle;html=1;whiteSpace=wrap;connectable=0;strokeColor=inherit;overflow=hidden;fillColor=none;top=0;left=0;bottom=0;right=0;pointerEvents=1;fontSize=16;" vertex="1" parent="JN2r9l-fqwPcNn_lezp6-37">
          <mxGeometry x="369" width="183" height="40" as="geometry">
            <mxRectangle width="183" height="40" as="alternateBounds" />
          </mxGeometry>
        </mxCell>
        <mxCell id="JN2r9l-fqwPcNn_lezp6-40" value="" style="shape=partialRectangle;html=1;whiteSpace=wrap;connectable=0;strokeColor=inherit;overflow=hidden;fillColor=none;top=0;left=0;bottom=0;right=0;pointerEvents=1;fontSize=16;" vertex="1" parent="JN2r9l-fqwPcNn_lezp6-37">
          <mxGeometry x="552" width="185" height="40" as="geometry">
            <mxRectangle width="185" height="40" as="alternateBounds" />
          </mxGeometry>
        </mxCell>
        <mxCell id="JN2r9l-fqwPcNn_lezp6-41" style="shape=partialRectangle;html=1;whiteSpace=wrap;connectable=0;strokeColor=inherit;overflow=hidden;fillColor=none;top=0;left=0;bottom=0;right=0;pointerEvents=1;fontSize=16;" vertex="1" parent="JN2r9l-fqwPcNn_lezp6-37">
          <mxGeometry x="737" width="183" height="40" as="geometry">
            <mxRectangle width="183" height="40" as="alternateBounds" />
          </mxGeometry>
        </mxCell>
      </root>
    </mxGraphModel>
  </diagram>
</mxfile>
